<svg width="100" height="36" viewBox="0 0 100 36" fill="none" xmlns="http://www.w3.org/2000/svg">
<g clip-path="url(#clip0_166_133)">
<path d="M88.2588 15.2333C88.8908 18.9013 86.5741 22.7893 82.2215 26.2371C82.1865 26.2738 82.2215 26.3472 82.2569 26.3105C85.7315 23.963 89.3822 21.2854 91.8741 17.7642C92.7516 16.5171 93.5239 14.9766 93.6291 13.3994C93.8751 10.4283 91.9794 7.8975 89.6277 6.5037C88.0483 5.5867 86.3282 4.99983 84.5731 4.59636C81.5196 3.86277 78.3607 3.6427 75.2368 3.67938C73.6573 3.71605 72.0425 3.78941 70.4631 3.93613C68.9191 4.08285 67.4095 4.30292 65.9004 4.55968C64.3908 4.81643 62.9167 5.14655 61.4076 5.51335C61.232 5.55 61.0918 5.5867 60.9162 5.6234C60.8808 5.6234 60.8808 5.69675 60.9162 5.69675C75.3071 4.3396 87.0306 8.19095 88.2588 15.2333Z" fill="white"/>
<path d="M75.4114 1.91835C75.3765 1.91835 75.341 1.84499 75.4114 1.84499C76.5348 1.62492 77.6229 1.40484 78.7458 1.22144C80.5358 0.92801 82.2908 0.671255 84.0812 0.487857C87.1698 0.194423 90.364 -0.0256524 93.4525 0.451178C94.1549 0.561215 94.8214 0.707935 95.5238 0.89133C97.2085 1.40484 98.9281 2.32183 99.3846 4.22915C99.7004 5.47625 99.4899 6.76 99.1391 7.97045C98.4367 10.2812 97.0329 12.372 95.5588 14.2426C95.4535 14.3527 95.3832 14.4626 95.2779 14.5727C95.243 14.6094 95.2076 14.5727 95.2076 14.536C95.8042 12.8488 96.0851 10.9415 95.7693 9.18085C95.3128 6.53995 93.3123 4.63262 91.0659 3.6056C88.3281 2.3585 85.3095 2.02839 82.3611 1.91835C80.0095 1.73495 77.7281 1.80831 75.4114 1.91835Z" fill="white"/>
<path d="M23.2539 29.3907C23.2539 32.8385 20.5863 35.6261 17.2869 35.6261H0.0178223V29.9042H4.1596V31.298H17.2869C18.3048 31.298 19.1472 30.4177 19.1472 29.354C19.1472 28.2903 18.3048 27.41 17.2869 27.41H0.0178223V23.1185H13.8822C14.9001 23.1185 15.7426 22.2382 15.7426 21.1745C15.7426 20.1108 14.9001 19.2305 13.8822 19.2305H4.1596V20.6243H0.0178223V14.939H13.8822C17.1816 14.939 19.8492 17.7267 19.8492 21.1745C19.8492 22.0181 19.7088 22.7884 19.3929 23.522C21.6744 24.439 23.2539 26.7131 23.2539 29.3907ZM52.4919 14.939H77.2374V19.2672H52.4919V14.939ZM62.8115 21.7247H66.9532V35.6261H62.8115V21.7247ZM41.5409 26.383L44.6648 30.7111H33.3977L29.8175 35.6261H24.6228L40.523 13.7286L56.423 35.6628H51.2283L40.523 20.9178L36.5216 26.4196H41.5409V26.383Z" fill="white"/>
</g>
<defs>
<clipPath id="clip0_166_133">
<rect width="100" height="36" fill="white"/>
</clipPath>
</defs>
</svg>
