<svg width="100" height="36" viewBox="0 0 100 36" fill="none"
    xmlns="http://www.w3.org/2000/svg">
    <g clip-path="url(#clip0_160_62)">
        <path d="M88.2589 15.2333C88.891 18.9013 86.5742 22.7893 82.2216 26.2371C82.1867 26.2738 82.2216 26.3472 82.257 26.3105C85.7316 23.963 89.3824 21.2854 91.8742 17.7642C92.7517 16.5171 93.524 14.9766 93.6292 13.3994C93.8752 10.4283 91.9795 7.8975 89.6278 6.5037C88.0484 5.5867 86.3283 4.99983 84.5733 4.59636C81.5197 3.86277 78.3608 3.6427 75.2369 3.67938C73.6575 3.71605 72.0426 3.78941 70.4632 3.93613C68.9192 4.08285 67.4096 4.30292 65.9005 4.55968C64.391 4.81643 62.9168 5.14655 61.4077 5.51335C61.2321 5.55 61.0919 5.5867 60.9163 5.6234C60.8809 5.6234 60.8809 5.69675 60.9163 5.69675C75.3072 4.3396 87.0307 8.19095 88.2589 15.2333Z" fill="white"/>
        <path d="M75.4115 1.91835C75.3766 1.91835 75.3412 1.84499 75.4115 1.84499C76.535 1.62492 77.623 1.40484 78.746 1.22144C80.5359 0.92801 82.2909 0.671255 84.0814 0.487857C87.1699 0.194423 90.3641 -0.0256524 93.4527 0.451178C94.155 0.561215 94.8216 0.707935 95.5239 0.89133C97.2086 1.40484 98.9283 2.32183 99.3847 4.22915C99.7005 5.47625 99.49 6.76 99.1393 7.97045C98.4369 10.2812 97.033 12.372 95.5589 14.2426C95.4536 14.3527 95.3833 14.4626 95.278 14.5727C95.2431 14.6094 95.2077 14.5727 95.2077 14.536C95.8043 12.8488 96.0852 10.9415 95.7694 9.18085C95.3129 6.53995 93.3125 4.63262 91.0661 3.6056C88.3283 2.3585 85.3096 2.02839 82.3613 1.91835C80.0096 1.73495 77.7283 1.80831 75.4115 1.91835Z" fill="white"/>
        <path d="M23.2538 29.3907C23.2538 32.8385 20.5862 35.6261 17.2868 35.6261H0.0177002V29.9042H4.15948V31.298H17.2868C18.3047 31.298 19.1471 30.4177 19.1471 29.354C19.1471 28.2903 18.3047 27.41 17.2868 27.41H0.0177002V23.1185H13.8821C14.9 23.1185 15.7424 22.2382 15.7424 21.1745C15.7424 20.1108 14.9 19.2305 13.8821 19.2305H4.15948V20.6243H0.0177002V14.939H13.8821C17.1815 14.939 19.8491 17.7267 19.8491 21.1745C19.8491 22.0181 19.7087 22.7884 19.3928 23.522C21.6743 24.439 23.2538 26.7131 23.2538 29.3907ZM52.4918 14.939H77.2373V19.2672H52.4918V14.939ZM62.8114 21.7247H66.9531V35.6261H62.8114V21.7247ZM41.5408 26.383L44.6646 30.7111H33.3976L29.8174 35.6261H24.6227L40.5229 13.7286L56.4229 35.6628H51.2282L40.5229 20.9178L36.5215 26.4196H41.5408V26.383Z" fill="white"/>
    </g>
    <defs>
        <clipPath id="clip0_160_62">
            <rect width="100" height="36" fill="white"/>
        </clipPath>
    </defs>
</svg>
